#!OML:ASF F:\VICON\USERDATA\INSTALL\Justin_Nancy\Justin_Nancy.ASF
:FULLY-SPECIFIED
:DEGREES
1
root 0.948937 18.0131 -32.5725 6.12902 1.80495 -4.05368
lowerback 8.2533 2.29748 4.98861
upperback 1.04437 3.62516 3.25728
thorax -3.44493 1.75025 0.182546
lowerneck -18.4036 -5.91364 -9.4705
upperneck 10.7513 -6.55798 6.36005
head 6.80101 -3.02017 2.84271
rclavicle -6.55989e-015 -2.94201e-014
rhumerus -40.353 11.8746 -90.4752
rradius 120.012
rwrist -7.22802
rhand -16.31 24.4464
rfingers 7.12502
rthumb 9.9011 -5.30076
lclavicle -6.55989e-015 -2.94201e-014
lhumerus -59.2057 -3.68134 93.5966
lradius 103.166
lwrist 28.7252
lhand -16.105 9.2449
lfingers 7.12502
lthumb 10.0988 38.9826
rfemur 9.71844 8.6049 31.2581
rtibia 46.459
rfoot 16.7489 -5.12545
rtoes 5.02439
lfemur -34.5412 -0.234509 -18.0331
ltibia 28.1479
lfoot 5.82547 -4.32069
ltoes -12.8
2
root 0.940716 17.95 -32.1653 5.87227 1.77616 -3.71858
lowerback 8.54311 1.26952 2.63077
upperback -1.47178 2.26835 4.55963
thorax -6.43847 1.11127 2.99178
lowerneck -7.13819 -3.72883 -11.2086
upperneck 7.70136 -4.35379 6.15813
head 3.84567 -2.19144 3.45661
rclavicle 1.49089e-014 4.69132e-014
rhumerus -47.3506 15.4629 -91.7061
rradius 120.231
rwrist -7.35289
rhand -16.3011 24.2139
rfingers 7.12502
rthumb 9.90967 -5.53287
lclavicle 1.49089e-014 4.69132e-014
lhumerus -65.0511 0.432137 94.1967
lradius 104.298
lwrist 28.4085
lhand -16.2451 9.21146
lfingers 7.12502
lthumb 9.96372 38.9556
rfemur 8.26982 8.22664 30.7199
rtibia 50.5192
rfoot 17.3143 -5.40239
rtoes 3.40218
lfemur -33.4926 -0.104916 -18.5193
ltibia 27.8986
lfoot 6.26079 -5.19201
ltoes -10.1719
3
root 0.936337 17.87 -31.7552 5.68022 1.48953 -3.27711
lowerback 8.91713 0.821264 1.16168
upperback -1.76517 1.57479 5.05338
thorax -6.99691 0.843013 4.45187
lowerneck -6.33855 -3.1838 -12.0962
upperneck 8.38994 -3.62674 6.04449
head 3.8746 -1.88889 3.62008
rclavicle 6.95746e-016 2.54444e-014
rhumerus -49.0693 17.1821 -92.0693
rradius 119.972
rwrist -7.17792
rhand -15.285 21.5131
rfingers 7.12502
rthumb 10.8898 -8.18455
lclavicle 6.95746e-016 2.54444e-014
lhumerus -65.4077 2.11804 94.3143
lradius 104.756
lwrist 28.3039
lhand -16.4252 9.39374
lfingers 7.12502
lthumb 9.7899 39.1462
rfemur 6.83762 7.99218 29.9188
rtibia 54.643
rfoot 16.6596 -5.58522
rtoes 2.50611
lfemur -32.8333 0.267486 -19.2134
ltibia 28.7201
lfoot 5.55268 -6.19524
ltoes -3.55444
4
root 0.928328 17.7711 -31.3562 5.31896 1.41682 -2.81734
lowerback 9.12199 0.744898 0.35878
upperback -1.40994 1.36603 4.99218
thorax -6.73787 0.765735 4.87069
lowerneck -6.73157 -2.9435 -12.1275
upperneck 7.56497 -3.25101 6.22096
head 3.65712 -1.67464 3.69771
rclavicle -9.0447e-015 -2.70347e-014
rhumerus -49.084 17.2881 -92.0211
rradius 119.395
rwrist -7.05065
rhand -15.9725 21.9122
rfingers 7.12502
rthumb 10.2267 -7.81922
lclavicle -9.0447e-015 -2.70347e-014
lhumerus -64.3728 1.86715 94.4382
lradius 105.119
lwrist 28.177
lhand -16.9456 9.56225
lfingers 7.12502
lthumb 9.28784 39.3377
rfemur 5.55875 7.42525 29.0607
rtibia 58.6159
rfoot 16.1107 -5.46588
rtoes 3.68232
lfemur -32.0965 0.776318 -20.036
ltibia 29.9897
lfoot 3.55079 -7.45924
ltoes 0.991857
5
root 0.925435 17.6606 -30.9584 4.90225 1.51865 -2.42209
lowerback 8.79728 2.20407 2.29061
upperback 1.78528 3.23946 2.89437
thorax -3.11747 1.59771 1.34292
lowerneck -17.8826 -5.68658 -9.56872
upperneck 9.83019 -6.30055 6.76669
head 6.41536 -2.87356 3.03418
rclavicle 1.72943e-014 2.38542e-015
rhumerus -42.2246 11.3411 -90.9197
rradius 118.194
rwrist -6.54401
rhand -15.8853 21.697
rfingers 7.12502
rthumb 10.3108 -8.03022
lclavicle 1.72943e-014 2.38542e-015
lhumerus -56.7151 -5.35588 93.8409
lradius 104.573
lwrist 28.5498
lhand -17.0494 9.49284
lfingers 7.12502
lthumb 9.18764 39.2727
rfemur 4.17725 6.54708 28.1445
rtibia 62.5683
rfoot 15.7618 -5.23215
rtoes 5.575
lfemur -31.5411 1.19049 -20.8035
ltibia 31.9428
lfoot 0.577494 -8.05023
ltoes 0.337484
6
root 0.924668 17.5539 -30.5636 4.55741 1.52663 -2.22077
lowerback 8.75151 2.05931 1.50189
upperback 1.61096 2.99187 3.17574
thorax -3.32655 1.48339 2.10226
lowerneck -15.5958 -5.30037 -10.1512
upperneck 9.29253 -5.8824 6.98744
head 5.86048 -2.71983 3.28439
rclavicle -6.16232e-015 -9.54166e-015
rhumerus -43.4496 11.7223 -90.8206
rradius 117.651
rwrist -6.63687
rhand -17.1454 23.9234
rfingers 7.12502
rthumb 9.09502 -5.86048
lclavicle -6.16232e-015 -9.54166e-015
lhumerus -56.9187 -5.18225 94.3018
lradius 105.193
lwrist 28.2243
lhand -16.2168 9.13779
lfingers 7.12502
lthumb 9.99096 38.8807
rfemur 2.6638 5.81261 27.424
rtibia 66.4625
rfoot 15.078 -4.98618
rtoes 4.66605
lfemur -30.6761 1.24321 -21.1346
ltibia 34.4372
lfoot -2.93378 -7.49393
ltoes 0.258175
7
root 0.924223 17.4525 -30.1708 4.15789 1.53512 -2.02466
lowerback 8.90349 1.21418 -0.399613
upperback 0.661837 1.78074 4.38324
thorax -4.46406 0.933985 4.58065
lowerneck -10.0366 -4.03312 -11.823
upperneck 7.44667 -4.37959 6.56409
head 4.27044 -2.1504 3.64011
rclavicle 0 2.3059e-014
rhumerus -46.9272 14.8701 -90.88
rradius 117.537
rwrist -7.22025
rhand -16.9769 23.8416
rfingers 7.12502
rthumb 9.25768 -5.93513
lclavicle 0 2.3059e-014
lhumerus -59.0411 -1.92178 95.2594
lradius 106.282
lwrist 27.4709
lhand -15.3991 8.44892
lfingers 7.12502
lthumb 10.7798 38.1523
rfemur 1.16364 5.07491 26.6736
rtibia 70.2659
rfoot 14.2989 -4.57274
rtoes 4.15201
lfemur -29.8564 1.09252 -21.4252
ltibia 37.0395
lfoot -6.34364 -6.95584
ltoes 2.18378
8
root 0.921308 17.3494 -29.7974 3.81549 1.79753 -1.80108
lowerback 6.66201 0.650995 1.63027
upperback 2.1595 1.02227 2.55045
thorax -1.52647 0.506885 1.62939
lowerneck -8.52028 -3.88182 -10.6229
upperneck 5.55255 -4.55768 7.88667
head 3.46598 -2.15173 3.87214
rclavicle -1.25234e-014 -1.74931e-014
rhumerus -45.6343 13.6458 -93.4114
rradius 116.583
rwrist -7.01294
rhand -17.3316 24.6241
rfingers 7.12502
rthumb 8.9154 -5.16756
lclavicle -1.25234e-014 -1.74931e-014
lhumerus -56.3957 -3.60367 92.4886
lradius 106.959
lwrist 27.6123
lhand -15.3332 8.74488
lfingers 7.12502
lthumb 10.8434 38.4449
rfemur -0.593785 4.10921 25.9057
rtibia 74.0782
rfoot 13.4353 -4.32967
rtoes 4.3802
lfemur -29.4337 0.676088 -21.7441
ltibia 39.5667
lfoot -9.051 -6.23886
ltoes 3.23222
